#!OML:ASF G:\JayActor3\Patient Classification 1\Patient 1\Session 5\male.ASF
:FULLY-SPECIFIED
:DEGREES
1308
root -59.4649 17.0102 -4.97273 -301.553 93.4413 -308.924
lowerback 16.5187 -1.60955 5.48624
upperback 6.92527 -0.897 -0.503332
thorax -1.96361 -0.179955 -3.48027
lowerneck -4.72855 -0.326203 3.27026
upperneck -5.77437 -0.387892 1.29108
head -0.993404 -0.214335 -0.143215
rclavicle 2.5842e-015 -5.96354e-015
rhumerus -32.3747 -2.79597 -87.6795
rradius 38.7306
rwrist -0.259121
rhand -20.3609 -10.0453
rfingers 7.12502
rthumb 5.9914 -39.9406
lclavicle 2.5842e-015 -5.96354e-015
lhumerus -27.3582 5.32441 82.5761
lradius 28.2666
lwrist 21.2881
lhand -21.4824 16.7744
lfingers 7.12502
lthumb 4.90861 46.6976
rfemur -19.5086 -1.10886 27.0238
rtibia 35.7939
rfoot -32.0371 -9.03325
rtoes 7.99002
lfemur -23.3624 8.37013 -19.0814
ltibia 41.0499
lfoot -16.2147 8.61068
ltoes -10.8537
1309
root -59.4505 17.0148 -4.97974 -300.946 93.4829 -308.194
lowerback 16.1298 -1.55936 5.43981
upperback 6.80361 -0.873224 -0.454097
thorax -1.8848 -0.176634 -3.40773
lowerneck -4.75635 -0.383978 3.27036
upperneck -5.39719 -0.485429 1.24082
head -0.873099 -0.260814 -0.158985
rclavicle -9.93923e-017 1.61016e-014
rhumerus -32.4164 -2.8169 -87.655
rradius 38.5506
rwrist -0.170085
rhand -20.3131 -10.0038
rfingers 7.12502
rthumb 6.03753 -39.8978
lclavicle -9.93923e-017 1.61016e-014
lhumerus -27.5137 5.57146 82.4979
lradius 28.2688
lwrist 21.1863
lhand -21.4194 16.2191
lfingers 7.12502
lthumb 4.96939 46.1409
rfemur -19.1521 -1.21424 27.0468
rtibia 35.5149
rfoot -31.9738 -8.97232
rtoes 7.50413
lfemur -22.424 8.52182 -19.0411
ltibia 40.2895
lfoot -16.0243 8.07505
ltoes -10.8316
1310
root -59.4339 17.0182 -4.98811 -300.197 93.5128 -307.324
lowerback 15.7224 -1.50743 5.38886
upperback 6.69457 -0.848188 -0.407512
thorax -1.78202 -0.171445 -3.33579
lowerneck -4.76388 -0.455912 3.27722
upperneck -5.07481 -0.599209 1.17287
head -0.773927 -0.316039 -0.181528
rclavicle 5.76476e-015 5.1684e-015
rhumerus -32.4384 -2.84587 -87.6262
rradius 38.392
rwrist -0.125823
rhand -20.2273 -10.0145
rfingers 7.12502
rthumb 6.12033 -39.9061
lclavicle 5.76476e-015 5.1684e-015
lhumerus -27.6781 6.06744 82.3646
lradius 28.3138
lwrist 20.8439
lhand -21.2663 15.7309
lfingers 7.12502
lthumb 5.11719 45.6491
rfemur -18.8082 -1.29868 27.06
rtibia 35.2659
rfoot -31.9488 -8.93159
rtoes 7.0136
lfemur -21.4426 8.63714 -19.0039
ltibia 39.4164
lfoot -15.9814 7.5865
ltoes -10.5881
1311
root -59.4156 17.021 -4.99804 -299.418 93.5311 -306.437
lowerback 15.3025 -1.45426 5.34089
upperback 6.57687 -0.822083 -0.36846
thorax -1.68104 -0.166045 -3.27368
lowerneck -4.79115 -0.512329 3.30113
upperneck -4.73073 -0.693801 1.09354
head -0.665372 -0.361489 -0.210414
rclavicle -5.36719e-015 9.54166e-015
rhumerus -32.4692 -2.89273 -87.5946
rradius 38.2525
rwrist -0.116993
rhand -20.115 -10.0804
rfingers 7.12502
rthumb 6.22877 -39.9689
lclavicle -5.36719e-015 9.54166e-015
lhumerus -27.867 6.66227 82.2041
lradius 28.402
lwrist 20.3633
lhand -21.0499 15.5293
lfingers 7.12502
lthumb 5.32614 45.4424
rfemur -18.4959 -1.36876 27.0562
rtibia 35.0492
rfoot -31.9403 -8.90321
rtoes 6.49669
lfemur -20.453 8.71259 -18.9824
ltibia 38.4264
lfoot -16.1054 7.18501
ltoes -10.0952
1312
root -59.3962 17.0234 -5.00947 -298.799 93.534 -305.727
lowerback 14.8717 -1.39907 5.29035
upperback 6.44479 -0.794808 -0.340868
thorax -1.58868 -0.160839 -3.22234
lowerneck -4.81991 -0.553867 3.34057
upperneck -4.36569 -0.769193 1.00907
head -0.550607 -0.397306 -0.243511
rclavicle -6.4605e-015 3.77691e-015
rhumerus -32.521 -2.95829 -87.5638
rradius 38.1034
rwrist -0.0691567
rhand -20.0709 -10.0847
rfingers 7.12502
rthumb 6.27133 -39.9719
lclavicle -6.4605e-015 3.77691e-015
lhumerus -28.0848 7.35568 82.0206
lradius 28.5508
lwrist 19.781
lhand -20.8562 15.6948
lfingers 7.12502
lthumb 5.51319 45.603
rfemur -18.2153 -1.43896 27.0248
rtibia 34.8635
rfoot -31.9596 -8.87559
rtoes 5.92952
lfemur -19.4679 8.73687 -18.9885
ltibia 37.322
lfoot -16.4312 6.90532
ltoes -9.38558
1313
root -59.3759 17.0258 -5.02224 -298.516 93.5196 -305.371
lowerback 14.4292 -1.34769 5.22553
upperback 6.30441 -0.775086 -0.32279
thorax -1.49878 -0.159873 -3.1717
lowerneck -4.88746 -0.570107 3.37985
upperneck -3.94782 -0.812653 0.934298
head -0.413541 -0.41629 -0.273835
rclavicle 7.55382e-015 1.19271e-014
rhumerus -32.5732 -3.03192 -87.5315
rradius 37.9585
rwrist -0.0319522
rhand -20.0346 -10.1016
rfingers 7.12502
rthumb 6.30637 -39.9877
lclavicle 7.55382e-015 1.19271e-014
lhumerus -28.3065 8.09278 81.832
lradius 28.7497
lwrist 19.1231
lhand -20.6524 16.2862
lfingers 7.12502
lthumb 5.70997 46.1892
rfemur -17.9649 -1.51839 26.9581
rtibia 34.7058
rfoot -31.9852 -8.84912
rtoes 5.28398
lfemur -18.5084 8.73608 -19.0371
ltibia 36.1162
lfoot -16.8652 6.79163
ltoes -8.54737
1314
root -59.3546 17.0279 -5.03501 -299.025 93.5045 -305.81
lowerback 13.9764 -1.30722 5.13
upperback 6.16498 -0.773219 -0.306166
thorax -1.40303 -0.167891 -3.10252
lowerneck -4.98413 -0.563945 3.42001
upperneck -3.4865 -0.827597 0.866045
head -0.258452 -0.420301 -0.302713
rclavicle -7.65321e-015 -3.97569e-016
rhumerus -32.6167 -3.11955 -87.4941
rradius 37.7818
rwrist 0.0648189
rhand -20.0703 -10.0343
rfingers 7.12502
rthumb 6.27194 -39.9215
lclavicle -7.65321e-015 -3.97569e-016
lhumerus -28.5181 8.64441 81.7045
lradius 28.9799
lwrist 18.6347
lhand -20.5223 17.0489
lfingers 7.12502
lthumb 5.83558 46.9485
rfemur -17.7198 -1.60748 26.8638
rtibia 34.5722
rfoot -32.1067 -8.80787
rtoes 4.61899
lfemur -17.5691 8.71859 -19.1192
ltibia 34.8324
lfoot -17.3397 6.80925
ltoes -7.57888
1315
root -59.3334 17.0302 -5.04867 -299.996 93.4708 -306.723
lowerback 13.5319 -1.27401 5.00904
upperback 6.0157 -0.782785 -0.298531
thorax -1.32212 -0.182495 -3.02681
lowerneck -5.06417 -0.557463 3.43721
upperneck -3.01885 -0.839584 0.819808
head -0.103716 -0.42251 -0.321605
rclavicle -4.96962e-015 -5.1684e-015
rhumerus -32.6543 -3.21756 -87.4514
rradius 37.6383
rwrist 0.069872
rhand -20.005 -10.1169
rfingers 7.12502
rthumb 6.33498 -40.0022
lclavicle -4.96962e-015 -5.1684e-015
lhumerus -28.7116 8.94381 81.6471
lradius 29.1997
lwrist 18.3534
lhand -20.4435 17.9915
lfingers 7.12502
lthumb 5.91161 47.8891
rfemur -17.4954 -1.7096 26.7302
rtibia 34.459
rfoot -32.2755 -8.74491
rtoes 3.92279
lfemur -16.6759 8.73821 -19.2535
ltibia 33.5094
lfoot -17.7546 6.93423
ltoes -6.58347
1316
root -59.3114 17.0323 -5.06196 -301.837 93.4355 -308.499
lowerback 13.0953 -1.25432 4.84807
upperback 5.86888 -0.81272 -0.293567
thorax -1.24339 -0.207481 -2.92864
lowerneck -5.14861 -0.548008 3.45034
upperneck -2.54129 -0.847102 0.775132
head 0.0553778 -0.422213 -0.339857
rclavicle 7.95139e-016 -8.94531e-015
rhumerus -32.6851 -3.31136 -87.4092
rradius 37.461
rwrist 0.147729
rhand -20.0295 -10.0777
rfingers 7.12502
rthumb 6.31135 -39.9637
lclavicle 7.95139e-016 -8.94531e-015
lhumerus -28.8762 8.98235 81.6574
lradius 29.3822
lwrist 18.2366
lhand -20.3273 18.9376
lfingers 7.12502
lthumb 6.02386 48.8319
rfemur -17.2664 -1.8241 26.5657
rtibia 34.3633
rfoot -32.5147 -8.69046
rtoes 3.24955
lfemur -15.8144 8.80127 -19.4292
ltibia 32.189
lfoot -18.036 7.12439
ltoes -5.5076
1317
root -59.2897 17.0338 -5.07526 -304.265 93.41 -310.861
lowerback 12.677 -1.25111 4.66469
upperback 5.7257 -0.863671 -0.287331
thorax -1.17122 -0.242934 -2.81395
lowerneck -5.24749 -0.539102 3.4372
upperneck -2.05507 -0.853851 0.749301
head 0.220424 -0.420946 -0.34849
rclavicle 1.54058e-014 2.16675e-014
rhumerus -32.695 -3.38691 -87.3705
rradius 37.2733
rwrist 0.243843
rhand -20.0773 -10.023
rfingers 7.12502
rthumb 6.26515 -39.9104
lclavicle 1.54058e-014 2.16675e-014
lhumerus -29.0194 8.87052 81.7143
lradius 29.5378
lwrist 18.2453
lhand -20.2346 19.8704
lfingers 7.12502
lthumb 6.11336 49.7622
rfemur -17.0379 -1.95686 26.3852
rtibia 34.2838
rfoot -32.7862 -8.64062
rtoes 2.61365
lfemur -14.9937 8.92162 -19.6311
ltibia 30.9114
lfoot -18.2154 7.29571
ltoes -4.39709
